# xmcd
#
# Track frame offsets: 
#        150
#        19517
#        57911
#        79534
#        110966
#        140212
#        169445
#        203492
#        208624
#        244619
#        266108
#        291762
#
# Disc length: 4285 seconds
#
# Revision: 0
# Processed by: cddbd v1.5.2PL0 Copyright (c) Steve Scherf et al.
# Submitted via: ExactAudioCopy v0.99pb5
#
DISCID=b310bb0c
DTITLE=Eddie Martin - Big Red Radio - Live in Tuscany
DYEAR=2015
DGENRE=Blues
TTITLE0=Blues Took Me By The Hand
TTITLE1=Flowers To The Desert
TTITLE2=Watching The Weather
TTITLE3=Intermezzo
TTITLE4=Month Of Mondays
TTITLE5=Five Things
TTITLE6=Something About You Baby
TTITLE7=Throw Me A Line
TTITLE8=How Can This Be?
TTITLE9=Ingolstadt
TTITLE10=Love And Understanding
TTITLE11=Steam Train
EXTD=
EXTT0=
EXTT1=
EXTT2=
EXTT3=
EXTT4=
EXTT5=
EXTT6=
EXTT7=
EXTT8=
EXTT9=
EXTT10=
EXTT11=
PLAYORDER=
